<svg width="1007" height="977"  viewBox="0 0 1007 977" fill="none" xmlns="http://www.w3.org/2000/svg">
<path d="M481.157 192.334C403.744 199.508 333.097 231.869 281.488 283.31C262.764 302.086 251.593 315.671 239.477 334.294C218.393 366.96 205.176 399.932 197.466 438.704C182.361 515.79 202.187 602.188 249.862 666.909C258.201 678.358 282.275 705.681 288.883 711.329C330.894 747.201 376.996 771.624 426.874 784.447C505.86 804.901 595.703 792.384 666.351 751.017C705.529 728.12 741.246 694.691 766.264 657.903C791.282 620.81 807.645 577.917 814.411 531.207C818.345 504.036 816.929 460.38 811.264 434.277C792.698 349.101 740.617 278.426 663.676 233.701C639.288 219.505 603.413 205.156 579.34 199.813C547.714 192.792 508.063 189.739 481.157 192.334ZM550.388 230.648C587.522 236.906 631.263 254.613 662.417 275.831C685.232 291.553 718.904 324.983 733.694 346.506C760.914 386.346 775.705 428.019 778.694 473.354C785.303 571.506 738.886 662.33 654.393 716.214C640.861 724.915 619.777 735.753 616.63 735.753C615.371 735.753 615.214 732.7 615.843 725.373C618.361 701.56 617.574 702.934 629.06 695.759C642.12 687.516 656.595 673.626 665.249 661.109C668.868 655.766 671.7 651.034 671.386 650.729C671.071 650.424 666.508 652.561 661.473 655.308C644.48 664.62 614.742 677.289 593.186 684.311C561.56 694.843 545.825 697.896 519.234 698.812L496.262 699.423L491.857 693.775C483.832 683.7 470.143 680.953 458.814 687.364C450.947 691.638 446.856 699.118 446.856 709.04C446.856 731.326 471.717 741.095 489.182 725.831L495.003 720.641L530.091 720.183L565.021 719.725L564.235 725.067C563.763 727.968 562.976 734.531 562.347 739.569C560.93 753.765 561.245 753.459 548.815 755.597C459.444 771.014 360.474 736.21 297.38 666.909C233.655 596.845 212.729 492.588 244.827 405.732C265.439 350.169 304.617 302.391 355.597 270.488C368.656 262.245 397.608 247.744 398.709 248.965C399.181 249.576 395.247 281.173 394.461 281.631C394.303 281.784 389.583 284.532 383.919 287.737C372.275 294.606 357.17 308.65 349.618 319.64C346.943 323.762 344.897 327.425 345.055 327.73C345.369 328.036 353.709 324.525 363.621 319.945C385.807 309.718 403.744 303.612 431.122 296.591C450.16 291.859 455.51 291.095 482.259 290.027L512.154 288.806L516.56 293.996C525.843 304.834 538.745 306.971 550.388 299.644C562.661 291.859 565.651 275.983 557.154 264.535C552.591 258.429 542.993 253.392 536.07 253.392C530.72 253.545 520.178 258.734 516.56 263.161L513.255 267.13H481.787H450.16L451.104 259.04C451.577 254.766 452.835 246.675 453.779 241.18L455.667 231.258L462.748 230.037C488.08 225.458 521.28 225.763 550.388 230.648Z" fill="url(#paint0_linear_29_66)"/>
<path d="M431.122 319.029C398.237 327.578 364.723 341.774 338.918 357.954C324.285 367.113 321.925 370.776 319.25 388.331C313.586 424.66 334.355 466.18 371.803 493.504C391.786 508.158 412.241 517.469 478.325 542.35C508.063 553.646 518.92 559.905 534.182 574.711C543.78 583.87 548.343 589.823 552.591 598.371C561.717 616.536 563.92 626.611 563.605 649.813C563.605 660.956 564.077 670.115 564.864 670.115C565.493 670.115 574.462 667.367 584.689 664.009C618.046 652.866 673.116 625.084 684.603 613.636C697.819 600.203 700.337 562.347 689.795 533.955C676.578 498.541 649.2 470.454 610.022 451.984C601.21 447.863 575.878 438.246 553.85 430.461C503.972 413.059 495.161 408.633 479.741 393.826C460.702 375.356 450.003 351.238 450.003 326.356C450.003 319.793 449.531 314.45 448.902 314.603C448.115 314.603 440.248 316.587 431.122 319.029ZM405.947 368.181C412.398 388.941 425.615 409.396 443.08 426.339C464.007 446.489 479.112 454.121 538.902 474.27C577.451 487.398 593.186 494.419 609.235 506.326C635.197 525.559 649.83 553.188 647.784 579.596C646.84 591.197 642.592 602.798 636.77 608.904C632.05 613.941 615.057 624.474 613.483 623.405C612.696 622.947 612.067 620.81 612.067 618.52C612.067 611.193 605.773 591.96 599.165 578.985C586.892 555.02 563.605 531.512 539.374 518.537C528.36 512.584 515.143 507.089 475.965 492.13C447.328 481.292 419.321 468.317 407.678 460.685C395.247 452.442 381.873 437.788 375.107 424.966C369.6 414.433 368.971 411.838 368.499 400.084C368.027 388.025 368.342 386.194 372.433 378.561C375.894 371.998 379.198 368.639 386.908 363.602C400.754 354.596 401.856 354.901 405.947 368.181Z" fill="url(#paint1_linear_29_66)"/>
<path d="M527.102 335.363C517.661 338.873 509.951 349.864 509.794 359.939C509.794 366.655 514.986 375.966 521.122 380.24C528.046 385.125 541.892 385.888 548.343 381.92L553.063 379.019L564.077 384.209C570.056 386.957 575.878 389.247 576.822 389.247C577.766 389.247 579.812 392.452 581.385 396.421C587.679 412.296 603.413 422.829 621.193 422.829C637.714 422.829 650.459 415.502 658.484 401.153C673.274 375.05 652.347 341.926 621.193 341.926C603.256 341.926 586.105 353.68 582.014 368.639C581.07 371.998 579.969 375.661 579.654 376.73C579.34 377.951 576.507 377.34 570.214 374.44C561.717 370.318 561.402 370.013 562.347 364.823C564.235 353.375 558.098 341.926 547.242 336.431C542.993 334.294 531.664 333.683 527.102 335.363ZM630.634 370.318C638.344 375.203 639.288 385.43 632.679 392.605C628.903 396.726 627.015 397.642 621.508 397.642C616.001 397.642 614.113 396.726 610.336 392.605C597.277 378.409 613.955 359.939 630.634 370.318Z" fill="url(#paint2_linear_29_66)"/>
<path d="M300.998 480.987C293.289 483.734 292.502 493.962 299.74 498.541C306.191 502.662 314.687 497.93 314.687 490.145C314.687 483.429 307.45 478.697 300.998 480.987Z" fill="url(#paint3_linear_29_66)"/>
<path d="M702.854 483.582C698.921 487.856 699.55 493.809 704.27 497.473C706.631 499.304 709.305 500.678 710.407 500.678C714.183 500.678 720.634 494.42 720.634 490.604C720.634 482.361 708.361 477.629 702.854 483.582Z" fill="url(#paint4_linear_29_66)"/>
<path d="M376.838 570.895C367.398 572.574 362.677 574.711 355.44 581.122C337.66 596.692 337.974 625.237 355.912 640.196C373.062 654.392 399.181 653.171 413.499 637.448C419.164 631.19 423.255 622.794 423.255 617.299C423.255 612.567 424.199 612.72 437.101 618.215L447.8 622.947L447.171 631.953C446.542 639.28 447.171 641.875 449.846 646.302C456.926 657.292 470.3 661.719 481.787 656.682C499.724 649.05 504.129 629.969 491.227 616.841C482.259 607.683 468.884 605.698 458.5 612.109C455.825 613.788 454.094 613.33 446.07 609.362C440.877 606.919 433.639 604.019 430.02 602.95C424.671 601.424 423.097 599.898 420.58 594.708C412.555 577.153 395.247 567.689 376.838 570.895ZM391.314 598.371C402.957 605.24 399.653 622.794 386.279 625.237C377.153 626.763 368.342 619.742 368.184 610.888C368.184 604.324 370.387 600.508 375.737 597.761C381.559 594.555 385.335 594.708 391.314 598.371Z" fill="url(#paint5_linear_29_66)"/>
<defs>
<linearGradient id="paint0_linear_29_66" x1="504.566" y1="794.09" x2="504.566" y2="191.418" gradientUnits="userSpaceOnUse">
<stop offset="0.115" stop-color="#FFF"/>
<stop offset="1" stop-color="#22C5BD"/>
</linearGradient>
<linearGradient id="paint1_linear_29_66" x1="507.335" y1="670.115" x2="507.335" y2="314.6" gradientUnits="userSpaceOnUse">
<stop offset="0.115" stop-color="#FFF"/>
<stop offset="1" stop-color="#22C5BD"/>
</linearGradient>
<linearGradient id="paint2_linear_29_66" x1="586.563" y1="422.829" x2="586.563" y2="334.398" gradientUnits="userSpaceOnUse">
<stop offset="0.115" stop-color="#FFF"/>
<stop offset="1" stop-color="#22C5BD"/>
</linearGradient>
<linearGradient id="paint3_linear_29_66" x1="304.712" y1="500.063" x2="304.712" y2="480.403" gradientUnits="userSpaceOnUse">
<stop offset="0.115" stop-color="#FFF"/>
<stop offset="1" stop-color="#22C5BD"/>
</linearGradient>
<linearGradient id="paint4_linear_29_66" x1="710.453" y1="500.678" x2="710.453" y2="480.912" gradientUnits="userSpaceOnUse">
<stop offset="0.115" stop-color="#FFF"/>
<stop offset="1" stop-color="#22C5BD"/>
</linearGradient>
<linearGradient id="paint5_linear_29_66" x1="420.465" y1="658.751" x2="420.465" y2="570.277" gradientUnits="userSpaceOnUse">
<stop offset="0.115" stop-color="#FFF"/>
<stop offset="1" stop-color="#22C5BD"/>
</linearGradient>
</defs>
</svg>
