<svg width="2592" height="576" viewBox="0 0 2592 576" fill="none" xmlns="http://www.w3.org/2000/svg">
<path d="M215.083 155.976C180.479 159.183 148.898 173.648 125.829 196.643C117.459 205.036 112.465 211.109 107.049 219.434C97.6243 234.036 91.7162 248.775 88.2698 266.106C81.5177 300.565 90.3799 339.185 111.691 368.117C115.419 373.234 126.18 385.448 129.134 387.973C147.914 404.008 168.522 414.926 190.818 420.657C226.126 429.801 266.287 424.206 297.867 405.714C315.38 395.479 331.346 380.535 342.529 364.091C353.713 347.51 361.027 328.336 364.052 307.456C365.81 295.311 365.177 275.795 362.645 264.127C354.346 226.052 331.065 194.46 296.671 174.467C285.769 168.121 269.733 161.707 258.972 159.319C244.835 156.18 227.11 154.816 215.083 155.976ZM246.03 173.102C262.629 175.9 282.182 183.815 296.109 193.3C306.307 200.328 321.359 215.271 327.97 224.892C340.138 242.702 346.75 261.33 348.086 281.595C351.04 325.47 330.291 366.07 292.522 390.157C286.473 394.046 277.048 398.891 275.641 398.891C275.079 398.891 275.008 397.526 275.29 394.251C276.415 383.606 276.063 384.22 281.198 381.013C287.035 377.328 293.506 371.119 297.375 365.524C298.992 363.136 300.258 361.02 300.118 360.884C299.977 360.747 297.937 361.703 295.687 362.931C288.09 367.093 274.797 372.757 265.161 375.896C251.024 380.604 243.991 381.968 232.104 382.378L221.835 382.651L219.866 380.126C216.279 375.623 210.16 374.394 205.096 377.26C201.579 379.171 199.75 382.514 199.75 386.95C199.75 396.912 210.863 401.279 218.67 394.455L221.273 392.135L236.957 391.931L252.572 391.726L252.22 394.114C252.009 395.411 251.657 398.345 251.376 400.596C250.743 406.942 250.883 406.806 245.327 407.761C205.377 414.653 161.137 399.095 132.932 368.117C104.447 336.797 95.0923 290.193 109.441 251.367C118.654 226.53 136.168 205.173 158.956 190.912C164.794 187.227 177.735 180.745 178.228 181.291C178.439 181.563 176.68 195.688 176.329 195.893C176.258 195.961 174.148 197.189 171.616 198.622C166.412 201.693 159.659 207.97 156.283 212.883C155.088 214.725 154.173 216.363 154.244 216.5C154.384 216.636 158.112 215.067 162.543 213.02C172.46 208.448 180.479 205.719 192.717 202.58C201.227 200.464 203.619 200.123 215.575 199.646L228.939 199.1L230.908 201.42C235.058 206.264 240.826 207.22 246.03 203.944C251.516 200.464 252.853 193.368 249.055 188.25C247.015 185.521 242.725 183.269 239.63 183.269C237.239 183.338 232.526 185.658 230.908 187.636L229.431 189.41H215.364H201.227L201.649 185.794C201.86 183.883 202.423 180.267 202.845 177.811L203.689 173.375L206.854 172.829C218.178 170.782 233.018 170.919 246.03 173.102Z" fill="url(#paint0_linear_28_65)"/>
<path d="M192.717 212.61C178.017 216.431 163.036 222.777 151.501 230.01C144.96 234.104 143.905 235.742 142.709 243.589C140.177 259.829 149.461 278.388 166.201 290.602C175.133 297.153 184.277 301.315 213.817 312.437C227.11 317.487 231.963 320.284 238.786 326.903C243.076 330.997 245.116 333.658 247.015 337.48C251.094 345.599 252.079 350.103 251.939 360.475C251.939 365.456 252.15 369.55 252.501 369.55C252.783 369.55 256.792 368.322 261.363 366.82C276.274 361.839 300.891 349.421 306.026 344.303C311.934 338.298 313.059 321.376 308.347 308.685C302.439 292.854 290.201 280.299 272.687 272.043C268.748 270.2 257.425 265.902 247.578 262.422C225.282 254.643 221.343 252.664 214.45 246.045C205.94 237.789 201.157 227.008 201.157 215.886C201.157 212.952 200.946 210.563 200.665 210.632C200.313 210.632 196.796 211.519 192.717 212.61ZM181.463 234.582C184.347 243.862 190.255 253.005 198.062 260.579C207.417 269.586 214.169 272.998 240.896 282.005C258.128 287.873 265.161 291.012 272.336 296.334C283.941 304.932 290.482 317.282 289.568 329.087C289.146 334.273 287.246 339.458 284.644 342.188C282.534 344.439 274.938 349.148 274.235 348.67C273.883 348.465 273.602 347.51 273.602 346.487C273.602 343.211 270.788 334.614 267.834 328.814C262.348 318.101 251.939 307.593 241.107 301.793C236.184 299.132 230.275 296.675 212.762 289.988C199.961 285.144 187.442 279.344 182.237 275.932C176.68 272.247 170.702 265.697 167.678 259.965C165.216 255.257 164.935 254.097 164.724 248.843C164.513 243.452 164.653 242.634 166.482 239.222C168.029 236.288 169.506 234.787 172.953 232.535C179.142 228.509 179.635 228.645 181.463 234.582Z" fill="url(#paint1_linear_28_65)"/>
<path d="M235.621 219.911C231.401 221.481 227.954 226.394 227.884 230.897C227.884 233.899 230.205 238.062 232.948 239.972C236.043 242.156 242.232 242.497 245.116 240.723L247.226 239.426L252.149 241.746C254.822 242.975 257.425 243.998 257.847 243.998C258.269 243.998 259.183 245.431 259.886 247.205C262.7 254.302 269.733 259.01 277.681 259.01C285.066 259.01 290.763 255.735 294.35 249.32C300.962 237.652 291.607 222.845 277.681 222.845C269.663 222.845 261.996 228.1 260.168 234.787C259.746 236.288 259.253 237.925 259.113 238.403C258.972 238.949 257.706 238.676 254.893 237.379C251.094 235.537 250.954 235.401 251.376 233.081C252.22 227.963 249.477 222.845 244.624 220.389C242.725 219.434 237.661 219.161 235.621 219.911ZM281.901 235.537C285.347 237.721 285.769 242.292 282.815 245.499C281.127 247.342 280.283 247.751 277.822 247.751C275.36 247.751 274.516 247.342 272.828 245.499C266.99 239.154 274.446 230.897 281.901 235.537Z" fill="url(#paint2_linear_28_65)"/>
<path d="M134.55 285.007C131.104 286.235 130.752 290.807 133.987 292.854C136.871 294.696 140.669 292.581 140.669 289.101C140.669 286.099 137.434 283.983 134.55 285.007Z" fill="url(#paint3_linear_28_65)"/>
<path d="M314.185 286.167C312.426 288.078 312.708 290.739 314.818 292.377C315.873 293.195 317.068 293.81 317.561 293.81C319.249 293.81 322.132 291.012 322.132 289.306C322.132 285.621 316.646 283.506 314.185 286.167Z" fill="url(#paint4_linear_28_65)"/>
<path d="M168.451 325.197C164.231 325.948 162.121 326.903 158.886 329.769C150.938 336.729 151.079 349.489 159.097 356.176C166.763 362.522 178.439 361.976 184.839 354.948C187.371 352.15 189.2 348.397 189.2 345.941C189.2 343.825 189.622 343.894 195.39 346.35L200.172 348.465L199.891 352.491C199.61 355.767 199.891 356.927 201.087 358.905C204.252 363.818 210.23 365.797 215.365 363.545C223.383 360.134 225.352 351.604 219.585 345.736C215.576 341.642 209.597 340.755 204.955 343.621C203.759 344.371 202.986 344.167 199.399 342.393C197.078 341.301 193.842 340.004 192.224 339.527C189.833 338.844 189.13 338.162 188.004 335.842C184.417 327.995 176.681 323.765 168.451 325.197ZM174.922 337.48C180.127 340.55 178.65 348.397 172.671 349.489C168.592 350.171 164.653 347.033 164.583 343.075C164.583 340.141 165.568 338.435 167.959 337.207C170.561 335.774 172.249 335.842 174.922 337.48Z" fill="url(#paint5_linear_28_65)"/>
<path d="M1523.27 81.7918C1473.37 90.547 1435.3 113.587 1418.76 144.921C1412.72 155.981 1411.67 161.049 1411.67 179.712C1411.67 208.051 1416.92 221.645 1434.51 238.464C1451.32 254.592 1482.56 268.416 1528.52 280.166C1585.24 294.451 1598.1 301.363 1598.1 317.721C1598.1 337.075 1578.15 348.595 1544.27 348.825C1512.24 349.056 1478.36 334.08 1458.14 311.04C1452.89 304.819 1447.64 299.75 1446.85 299.75C1446.07 299.52 1442.13 304.819 1438.19 311.27C1433.99 317.491 1424.53 330.163 1416.92 339.149C1400.37 358.272 1400.64 360.576 1419.54 376.704C1452.63 405.273 1511.45 420.71 1564.23 414.72C1605.19 410.342 1625.15 403.891 1651.41 386.611C1696.31 357.35 1707.34 292.377 1673.47 257.817C1655.61 239.616 1631.45 228.787 1579.99 216.576C1524.58 203.213 1510.14 195.149 1510.14 177.638C1510.14 160.589 1527.99 149.76 1559.24 147.917C1584.19 146.534 1608.61 152.985 1633.82 167.961L1652.98 179.021L1666.38 160.358C1673.73 150.221 1682.92 137.549 1686.86 132.48C1690.8 127.411 1693.95 122.112 1693.95 120.499C1693.95 116.582 1656.92 95.6158 1639.59 89.8558C1605.72 78.5662 1559.24 75.3406 1523.27 81.7918Z" fill="url(#paint6_angular_28_65)"/>
<path d="M433.525 125.798V166.349L440.352 162.432C453.744 154.829 469.499 151.373 498.647 149.99L528.319 148.608L527.531 270.72C526.743 389.837 526.481 393.062 521.229 402.739L515.715 412.416H571.646H627.577L621.8 401.357C616.023 390.758 616.023 388.454 615.236 272.102C614.711 206.899 614.973 152.525 615.498 151.142C616.286 149.299 625.739 149.069 646.746 149.99C676.681 151.373 680.62 152.294 710.03 165.427C711.08 165.888 711.868 148.147 711.868 125.798V85.248H572.696H433.525V125.798Z" fill="url(#paint7_angular_28_65)"/>
<path d="M1290.88 120.96C1270.92 138.701 1246.5 155.52 1224.7 166.349L1210.79 173.261V205.286V237.312H1221.29H1231.79V286.157C1231.79 351.821 1234.94 368.179 1250.7 388.915C1271.18 415.411 1324.49 424.166 1364.66 407.577C1382.26 400.205 1382.78 399.283 1376.48 376.013C1373.33 364.723 1370.96 353.203 1370.96 350.438C1370.96 344.909 1366.5 344.217 1359.41 349.056C1353.11 353.203 1329.48 353.433 1323.44 349.517C1313.2 342.605 1311.88 336.614 1311.09 286.157L1310.04 237.312H1339.19H1368.34V205.056V172.8H1339.45H1310.83L1310.04 138.701L1309.26 104.601L1290.88 120.96Z" fill="url(#paint8_angular_28_65)"/>
<path d="M834.497 171.878C807.713 176.947 788.807 185.702 770.688 201.6C743.379 225.331 732.875 251.136 732.875 293.299C732.875 335.232 744.692 362.65 772.526 385.92C791.17 401.587 809.551 409.19 839.486 414.029C858.392 417.024 865.745 417.254 882.288 415.181C914.849 410.803 948.46 393.754 963.165 374.17C967.104 368.64 967.104 368.179 950.298 352.973C941.108 344.448 930.867 334.08 927.453 329.933L921.151 322.099L910.385 331.315C895.68 343.757 885.439 347.904 868.633 347.904C844.475 347.904 827.144 338.227 818.479 320.026L814.54 311.731L853.141 310.349C904.083 308.736 923.252 303.898 944.521 287.309C966.579 270.49 973.406 238.464 960.014 215.194C938.744 177.638 890.953 161.28 834.497 171.878ZM883.076 237.312C890.166 243.763 890.953 245.606 889.64 254.822C887.277 273.485 864.169 293.069 833.709 301.824C812.702 308.045 810.601 306.893 812.702 287.309C815.328 263.117 828.72 243.994 849.202 235.238C864.695 228.557 873.36 229.018 883.076 237.312Z" fill="url(#paint9_angular_28_65)"/>
<path d="M1064.26 171.648C1015.16 181.325 988.111 204.365 985.485 238.233C982.597 279.475 1003.87 300.211 1066.36 317.03C1116.52 330.393 1120.19 332.006 1120.19 339.84C1120.19 346.061 1118.88 347.213 1108.64 349.977C1091.05 354.816 1053.76 348.825 1025.92 336.845C1014.37 331.776 1004.39 327.629 1004.13 328.089C1003.87 328.32 999.928 340.531 995.726 354.816C991.262 369.331 987.061 383.616 986.01 386.381C984.435 390.989 986.536 392.601 1003.6 399.744C1076.87 429.926 1160.11 416.563 1191.62 369.331C1199.76 357.12 1202.65 332.006 1197.92 316.339C1190.83 293.069 1161.42 275.097 1105.75 260.352C1063.47 249.062 1055.86 244.224 1066.36 235.008C1072.93 229.248 1092.62 228.787 1114.94 233.856C1131.75 237.773 1167.46 251.597 1174.02 256.896C1177.7 259.891 1179.28 256.896 1188.2 229.709C1193.72 212.889 1198.44 197.222 1198.71 194.918C1199.76 179.251 1106.8 163.123 1064.26 171.648Z" fill="url(#paint10_angular_28_65)"/>
<path d="M2119.08 170.266C2103.85 174.643 2100.43 178.33 2081.79 210.355L2062.88 243.072L2062.1 206.669C2061.83 186.854 2060.78 170.496 2060.26 170.496C2059.47 170.496 2048.44 175.104 2035.84 180.634C1997.5 197.453 1948.66 210.125 1948.66 203.213C1948.66 202.291 1950.5 196.531 1952.6 190.31C1954.7 184.09 1956.54 178.099 1956.54 176.947C1956.54 175.795 1938.68 175.334 1916.62 175.565L1876.71 176.256L1854.39 236.621C1842.05 270.029 1831.54 297.216 1830.49 297.216C1829.71 297.216 1825.77 287.539 1821.83 275.789C1817.63 264.269 1807.91 236.621 1800.03 214.733L1785.59 175.104H1745.15H1704.98L1712.33 196.301C1716.27 208.051 1732.81 254.592 1749.09 299.52C1765.37 344.448 1780.86 388.224 1783.75 396.749L1789.27 412.186L1771.67 459.187C1762.22 484.992 1754.34 507.11 1754.34 508.262C1754.34 509.414 1771.41 510.106 1794.52 509.645L1834.7 508.954L1856.23 450.893C1868.04 418.867 1888.53 363.802 1901.39 328.32C1947.35 204.134 1944.46 210.816 1950.76 210.125C1959.42 208.973 1970.98 217.498 1976.49 228.557C1980.43 237.082 1981.22 247.45 1982.27 299.981C1983.32 363.802 1980.96 393.062 1973.6 405.504L1969.4 412.416H2021.13C2061.31 412.416 2072.34 411.725 2071.02 409.421C2062.1 390.758 2061.31 382.694 2062.1 317.491L2062.88 251.827L2070.24 243.533C2083.1 228.557 2102.54 223.949 2119.34 231.552C2135.62 238.925 2136.41 242.611 2136.41 320.256C2136.41 387.763 2136.15 390.989 2130.63 401.357L2124.86 412.416H2176.06C2204.16 412.416 2227 412.186 2227 411.725C2227 411.494 2224.64 405.734 2221.75 399.053C2217.02 387.994 2216.5 381.312 2216.5 312.653C2216.5 271.872 2215.45 232.474 2213.87 225.101C2207.57 190.31 2183.68 171.418 2143.5 169.344C2133.78 168.653 2122.75 169.114 2119.08 170.266Z" fill="url(#paint11_angular_28_65)"/>
<path d="M2356.46 170.496C2314.71 177.178 2281.36 199.066 2263.76 231.782C2253.52 250.214 2250.64 264.499 2250.64 294.682C2250.37 335.232 2262.19 362.419 2290.29 385.92C2308.93 401.587 2327.31 409.19 2357.51 414.029C2376.94 417.254 2383.24 417.254 2400.05 414.95C2426.31 411.034 2449.41 401.587 2465.96 387.994C2487.23 370.483 2487.23 370.483 2468.06 352.973C2458.87 344.448 2448.1 333.85 2444.43 329.472L2437.34 321.638L2431.56 328.09C2428.15 331.776 2420.27 337.766 2413.7 341.222C2404.25 346.522 2399 347.904 2386.92 347.904C2362.24 347.904 2348.06 340.531 2336.5 321.408C2328.89 308.506 2328.62 279.706 2336.24 264.96C2354.88 229.248 2401.36 219.571 2430.51 245.376L2442.06 255.283L2456.5 238.925C2464.64 229.709 2474.36 218.88 2478.04 214.733L2485.13 207.13L2477.51 200.218C2466.75 190.31 2448.36 180.403 2430.25 174.874C2412.39 169.574 2376.94 167.27 2356.46 170.496Z" fill="url(#paint12_angular_28_65)"/>
<defs>
<linearGradient id="paint0_linear_28_65" x1="225.547" y1="424.968" x2="225.547" y2="155.566" gradientUnits="userSpaceOnUse">
<stop offset="0.115" stop-color="#4CE158"/>
<stop offset="1" stop-color="#22C5BD"/>
</linearGradient>
<linearGradient id="paint1_linear_28_65" x1="226.785" y1="369.55" x2="226.785" y2="210.63" gradientUnits="userSpaceOnUse">
<stop offset="0.115" stop-color="#4CE158"/>
<stop offset="1" stop-color="#22C5BD"/>
</linearGradient>
<linearGradient id="paint2_linear_28_65" x1="262.201" y1="259.01" x2="262.201" y2="219.48" gradientUnits="userSpaceOnUse">
<stop offset="0.115" stop-color="#4CE158"/>
<stop offset="1" stop-color="#22C5BD"/>
</linearGradient>
<linearGradient id="paint3_linear_28_65" x1="136.21" y1="293.534" x2="136.21" y2="284.746" gradientUnits="userSpaceOnUse">
<stop offset="0.115" stop-color="#4CE158"/>
<stop offset="1" stop-color="#22C5BD"/>
</linearGradient>
<linearGradient id="paint4_linear_28_65" x1="317.581" y1="293.81" x2="317.581" y2="284.974" gradientUnits="userSpaceOnUse">
<stop offset="0.115" stop-color="#4CE158"/>
<stop offset="1" stop-color="#22C5BD"/>
</linearGradient>
<linearGradient id="paint5_linear_28_65" x1="187.953" y1="364.47" x2="187.953" y2="324.921" gradientUnits="userSpaceOnUse">
<stop offset="0.115" stop-color="#4CE158"/>
<stop offset="1" stop-color="#22C5BD"/>
</linearGradient>
<radialGradient id="paint6_angular_28_65" cx="0" cy="0" r="1" gradientUnits="userSpaceOnUse" gradientTransform="translate(1549.43 247.252) scale(144.517 168.748)">
<stop offset="0.12" stop-color="#4CE158"/>
<stop offset="1" stop-color="#22C5BD"/>
</radialGradient>
<radialGradient id="paint7_angular_28_65" cx="0" cy="0" r="1" gradientUnits="userSpaceOnUse" gradientTransform="translate(572.696 248.832) scale(139.172 163.584)">
<stop offset="0.12" stop-color="#4CE158"/>
<stop offset="1" stop-color="#22C5BD"/>
</radialGradient>
<radialGradient id="paint8_angular_28_65" cx="0" cy="0" r="1" gradientUnits="userSpaceOnUse" gradientTransform="translate(1295.47 260.305) scale(84.6837 155.704)">
<stop offset="0.12" stop-color="#4CE158"/>
<stop offset="1" stop-color="#22C5BD"/>
</radialGradient>
<radialGradient id="paint9_angular_28_65" cx="0" cy="0" r="1" gradientUnits="userSpaceOnUse" gradientTransform="translate(849.868 292.624) scale(116.992 123.917)">
<stop offset="0.12" stop-color="#4CE158"/>
<stop offset="1" stop-color="#22C5BD"/>
</radialGradient>
<radialGradient id="paint10_angular_28_65" cx="0" cy="0" r="1" gradientUnits="userSpaceOnUse" gradientTransform="translate(1092.71 292.574) scale(107.483 123.288)">
<stop offset="0.12" stop-color="#4CE158"/>
<stop offset="1" stop-color="#22C5BD"/>
</radialGradient>
<radialGradient id="paint11_angular_28_65" cx="0" cy="0" r="1" gradientUnits="userSpaceOnUse" gradientTransform="translate(1965.99 339.404) scale(261.013 170.385)">
<stop offset="0.12" stop-color="#4CE158"/>
<stop offset="1" stop-color="#22C5BD"/>
</radialGradient>
<radialGradient id="paint12_angular_28_65" cx="0" cy="0" r="1" gradientUnits="userSpaceOnUse" gradientTransform="translate(2367.88 292.796) scale(117.248 123.782)">
<stop offset="0.12" stop-color="#4CE158"/>
<stop offset="1" stop-color="#22C5BD"/>
</radialGradient>
</defs>
</svg>
